<svg xmlns="http://www.w3.org/2000/svg" width="24" height="24" fill="none" viewBox="0 0 24 24"><path fill="#fff" fill-rule="evenodd" d="m23 12-2.44-2.79.34-3.69-3.61-.82-1.89-3.2L12 2.96 8.6 1.5 6.71 4.69 3.1 5.5l.34 3.7L1 12l2.44 2.79-.34 3.7 3.61.82L8.6 22.5l3.4-1.47 3.4 1.46 1.89-3.19 3.61-.82-.34-3.69L23 12zm-11.757-.757c-.781.78-2.048.78-2.829 0a2.003 2.003 0 0 1 0-2.829 2.003 2.003 0 0 1 2.829 0c.78.781.78 2.048 0 2.829zm-.707-.707c-.391.39-1.024.39-1.415 0a1.002 1.002 0 0 1 0-1.415c.39-.39 1.024-.39 1.415 0 .39.39.39 1.024 0 1.415zm5.656 5.656a2 2 0 1 1-2.828-2.828 2 2 0 0 1 2.828 2.828zm-.707-.707a1 1 0 1 1-1.414-1.416 1 1 0 0 1 1.414 1.416zm.354-7.424a.5.5 0 0 1 .707.707l-7.778 7.778a.5.5 0 0 1-.707-.707l7.778-7.778z" clip-rule="evenodd"/></svg>