<svg xmlns="http://www.w3.org/2000/svg" width="24" height="24" fill="none" viewBox="0 0 30 30"><path fill="#fff" d="M13.34 16.233h-1.124l.56-1.306.563 1.306Z"/><path fill="#fff" fill-rule="evenodd" d="M7.886 0h12.24C25.897 0 28 2.102 28 7.875v12.239C28 25.887 25.887 28 20.125 28H7.886C2.113 28 0 25.887 0 20.114V7.874C0 2.103 2.113 0 7.886 0Zm3.724 17.65.34-.754h1.667l.328.754h.777l-1.607-3.656h-.652l-1.607 3.656h.754Zm13.275-3.656h-.743v3.656h.743v-3.656Zm-1.618 2.993h-2.038v-.902h1.352v-.674H21.23v-.743h1.958v-.674h-2.689v3.656h2.769v-.663ZM19.9 13.994h-.776l-.808 2.521-.834-2.52h-.609l-.823 2.52-.81-2.52h-.8l1.283 3.666h.61l.833-2.406L18 17.66h.628l1.272-3.667Zm-9.424 0h-.743v2.099c0 .593-.293.921-.834.921-.54 0-.834-.328-.834-.944v-2.072h-.742v2.09c0 1.033.575 1.63 1.565 1.63 1.013 0 1.588-.605 1.588-1.652v-2.072Zm-4.185 0h-.743v1.474H3.873v-1.474H3.13v3.667h.743v-1.496h1.675v1.496h.743v-3.667ZM9.348 4.68a4.657 4.657 0 0 0 4.658 4.657 4.667 4.667 0 0 0 4.657-4.657h-.651c0 2.205-1.802 3.995-4.006 3.995A4.006 4.006 0 0 1 10 4.68h-.652Z" clip-rule="evenodd"/></svg>