<svg xmlns="http://www.w3.org/2000/svg" width="24" height="24" fill="none" viewBox="0 0 24 24">
    <path fill="#B3B9C2" fill-rule="evenodd" d="M20.55 8.006l-2.455-6.763c-.181-.499-.713-.763-1.186-.59L.591 6.608C.117 6.78-.12 7.326.06 7.825l2.588 7.13v-3.823c0-1.724 1.378-3.126 3.073-3.126h4.311l5.142-3.61 2.976 3.61h2.399zm2.537 2.164H5.722c-.505 0-.914.431-.914.963v11.304c0 .531.409.963.914.963h17.364c.505 0 .914-.431.914-.963V11.133c0-.532-.41-.963-.914-.963zM21.76 20.994H7.367v-2.062l2.215-5.154 3.321 4.124 3.117-3.195 4.006-1.445 1.735 3.866v3.866z" clip-rule="evenodd"/>
</svg>
