<svg xmlns="http://www.w3.org/2000/svg" width="24" height="24" fill="none" viewBox="0 0 24 24"><path fill="#6A696E" fill-rule="evenodd" d="M23.338 2.383a9.455 9.455 0 0 1-3.129 1.268C19.313 2.635 18.033 2 16.615 2c-2.717 0-4.922 2.343-4.922 5.232 0 .41.043.809.127 1.192-4.092-.219-7.72-2.3-10.15-5.469a5.483 5.483 0 0 0-.666 2.634c0 1.814.87 3.416 2.191 4.354a4.706 4.706 0 0 1-2.232-.652v.064c0 2.536 1.698 4.652 3.952 5.13a4.5 4.5 0 0 1-1.298.185c-.317 0-.626-.031-.926-.093.626 2.078 2.444 3.592 4.599 3.632-1.685 1.404-3.81 2.241-6.115 2.241-.398 0-.79-.024-1.175-.072 2.179 1.483 4.768 2.35 7.548 2.35 9.058 0 14.01-7.973 14.01-14.888 0-.228-.005-.455-.013-.678A10.34 10.34 0 0 0 24 4.454a9.37 9.37 0 0 1-2.827.823 5.196 5.196 0 0 0 2.165-2.894z" clip-rule="evenodd"/></svg>